<svg width="456" height="456" viewBox="0 0 456 456" fill="none" xmlns="http://www.w3.org/2000/svg">
  <defs>
    <linearGradient id="bgGrad" x1="0%" y1="0%" x2="100%" y2="100%">
      <stop offset="0%" style="stop-color:#667EEA;stop-opacity:1" />
      <stop offset="100%" style="stop-color:#764BA2;stop-opacity:1" />
    </linearGradient>
    <radialGradient id="glow" cx="50%" cy="50%" r="50%">
      <stop offset="0%" style="stop-color:#ffffff;stop-opacity:0.2" />
      <stop offset="100%" style="stop-color:#ffffff;stop-opacity:0" />
    </radialGradient>
  </defs>
  
  <!-- Background -->
  <rect width="456" height="456" fill="url(#bgGrad)"/>
  
  <!-- Decorative Circles -->
  <circle cx="100" cy="100" r="60" fill="url(#glow)"/>
  <circle cx="356" cy="356" r="80" fill="url(#glow)"/>
  <circle cx="356" cy="100" r="40" fill="url(#glow)"/>
  <circle cx="100" cy="356" r="50" fill="url(#glow)"/>
  
  <!-- Main Icon - Book -->
  <g transform="translate(90, 140)">
    <!-- Left Page -->
    <path d="M 30 20 Q 30 5, 45 5 L 130 5 L 130 170 L 45 170 Q 30 170, 30 155 Z" 
          fill="white" opacity="0.95" stroke="white" stroke-width="2"/>
    
    <!-- Right Page -->
    <path d="M 146 5 L 231 5 Q 246 5, 246 20 L 246 155 Q 246 170, 231 170 L 146 170 Z" 
          fill="white" opacity="0.95" stroke="white" stroke-width="2"/>
    
    <!-- Spine Shadow -->
    <rect x="130" y="5" width="16" height="165" fill="white" opacity="0.5"/>
    
    <!-- Decorative Lines -->
    <line x1="50" y1="35" x2="120" y2="35" stroke="#667EEA" stroke-width="3" opacity="0.7"/>
    <line x1="50" y1="55" x2="120" y2="55" stroke="#667EEA" stroke-width="3" opacity="0.7"/>
    <line x1="50" y1="75" x2="110" y2="75" stroke="#667EEA" stroke-width="3" opacity="0.7"/>
    
    <line x1="156" y1="35" x2="226" y2="35" stroke="#764BA2" stroke-width="3" opacity="0.7"/>
    <line x1="156" y1="55" x2="226" y2="55" stroke="#764BA2" stroke-width="3" opacity="0.7"/>
    <line x1="156" y1="75" x2="216" y2="75" stroke="#764BA2" stroke-width="3" opacity="0.7"/>
  </g>
</svg>