<svg width="456" height="456" viewBox="0 0 456 456" fill="none" xmlns="http://www.w3.org/2000/svg">
  <defs>
    <linearGradient id="grad1" x1="0%" y1="0%" x2="100%" y2="100%">
      <stop offset="0%" style="stop-color:#667EEA;stop-opacity:1" />
      <stop offset="100%" style="stop-color:#764BA2;stop-opacity:1" />
    </linearGradient>
  </defs>
  
  <!-- Background Circle -->
  <circle cx="228" cy="228" r="228" fill="url(#grad1)"/>
  
  <!-- Book Icon -->
  <g transform="translate(100, 120)">
    <!-- Left Page -->
    <path d="M 30 20 Q 30 10, 40 10 L 120 10 L 120 200 L 40 200 Q 30 200, 30 190 Z" 
          fill="white" opacity="0.95"/>
    
    <!-- Right Page -->
    <path d="M 136 10 L 216 10 Q 226 10, 226 20 L 226 190 Q 226 200, 216 200 L 136 200 Z" 
          fill="white" opacity="0.95"/>
    
    <!-- Spine -->
    <rect x="120" y="10" width="16" height="190" fill="white" opacity="0.7"/>
    
    <!-- Page Lines (Left) -->
    <line x1="45" y1="40" x2="110" y2="40" stroke="#667EEA" stroke-width="2" opacity="0.6"/>
    <line x1="45" y1="60" x2="110" y2="60" stroke="#667EEA" stroke-width="2" opacity="0.6"/>
    <line x1="45" y1="80" x2="110" y2="80" stroke="#667EEA" stroke-width="2" opacity="0.6"/>
    <line x1="45" y1="100" x2="90" y2="100" stroke="#667EEA" stroke-width="2" opacity="0.6"/>
    
    <!-- Page Lines (Right) -->
    <line x1="146" y1="40" x2="211" y2="40" stroke="#764BA2" stroke-width="2" opacity="0.6"/>
    <line x1="146" y1="60" x2="211" y2="60" stroke="#764BA2" stroke-width="2" opacity="0.6"/>
    <line x1="146" y1="80" x2="211" y2="80" stroke="#764BA2" stroke-width="2" opacity="0.6"/>
    <line x1="146" y1="100" x2="191" y2="100" stroke="#764BA2" stroke-width="2" opacity="0.6"/>
  </g>
</svg>